<svg xmlns="http://www.w3.org/2000/svg" xmlns:xlink="http://www.w3.org/1999/xlink" width="200" height="446" viewBox="0 0 200 446"><defs><clipPath id="b"><rect width="200" height="446"/></clipPath></defs><g id="a" clip-path="url(#b)"><path d="M83.507,365.882a286.325,286.325,0,0,1-30.665-1.231c-7.859-.877-13.393-2.254-17.416-4.332l-.009,0a18.215,18.215,0,0,1-7.7-7.342,10.339,10.339,0,0,1-1.535-5.681c.419-2.464,13.127-56.84,14.371-62.027.83-3.462,2.137-5.048,3.108-5.771v-2.268a1.615,1.615,0,0,0-.1-.736,2.936,2.936,0,0,0-.847-.822,96.205,96.205,0,0,0-8.634-4.906c-1.841-.991-3.928-2.115-6.418-3.469a36.685,36.685,0,0,1-11.335-9.767A59.027,59.027,0,0,1,7.6,241.018,121.436,121.436,0,0,1,1.99,216.6,255.015,255.015,0,0,1,0,182.958a174.57,174.57,0,0,1,2.022-27.493,110.939,110.939,0,0,1,5.355-20.933c3.949-10.633,9.47-19.287,16.41-25.722a48.671,48.671,0,0,1,8.831-6.528,43.8,43.8,0,0,1,7.731-3.505,35.32,35.32,0,0,1,6.191-1.525V93.217a2.1,2.1,0,0,1,.125-.711,4.338,4.338,0,0,1-2.019-2.93l-.025-.134V88.5c-.183-.287-.352-.543-.507-.777a9.322,9.322,0,0,1-1.548-3.171c-.5-2.013-13.743-58.01-14.31-60.522l-.157-.693c-.664-2.927-.967-4.262-.46-5.71.293-.837.643-1.726.818-2.165V13.727c0-.065,0-.128,0-.189a3.485,3.485,0,0,1,.333-1.759A5.309,5.309,0,0,1,30.56,9.932l.072-.048a29.7,29.7,0,0,1,3.8-2.03V6.947l.4-.431C37.316,3.84,42.93,2.128,52.5,1.126,59.94.347,69.5,0,83.5,0s23.562.347,31,1.126c9.576,1,15.189,2.715,17.666,5.391l.4.431v.9A29.7,29.7,0,0,1,136.4,9.882l.063.042a5.251,5.251,0,0,1,1.787,1.835,3.4,3.4,0,0,1,.331,1.758c0,.068,0,.137,0,.21v1.705c.179.442.533,1.333.822,2.182.5,1.458.191,2.807-.479,5.764l-.142.626c-.538,2.385-7.768,32.9-11.651,49.295-1.486,6.272-2.559,10.8-2.653,11.2a8.737,8.737,0,0,1-1.521,3.155c-.164.245-.344.514-.539.818v.94l-.025.134a4.338,4.338,0,0,1-2.019,2.93,2.1,2.1,0,0,1,.125.709v4.037a35.3,35.3,0,0,1,6.188,1.525,43.777,43.777,0,0,1,7.728,3.505,48.655,48.655,0,0,1,8.828,6.528c6.937,6.434,12.456,15.088,16.4,25.722a110.966,110.966,0,0,1,5.353,20.933,174.627,174.627,0,0,1,2.021,27.493,254.742,254.742,0,0,1-1.993,33.644,121.368,121.368,0,0,1-5.613,24.413,58.969,58.969,0,0,1-8.731,16.5,36.579,36.579,0,0,1-11.33,9.748c-2.379,1.291-4.4,2.374-6.175,3.331a99.673,99.673,0,0,0-8.839,5.011c-.98.719-.98.921-.98,1.591v2.268c.972.724,2.282,2.31,3.108,5.773.8,3.365,13.926,59.466,14.37,62.023a10.285,10.285,0,0,1-1.542,5.685,18.29,18.29,0,0,1-7.692,7.339c-4.012,2.1-9.544,3.49-17.412,4.379A283.112,283.112,0,0,1,83.507,365.882Zm-46.7-8.228c7.189,3.713,20.72,5.228,46.7,5.228,26,0,39.526-1.53,46.7-5.283a15.37,15.37,0,0,0,6.374-5.977,8.9,8.9,0,0,0,1.3-3.887c-.428-2.42-13.053-56.472-14.331-61.831-.785-3.291-1.913-4.038-2.1-4.142l-1.089-.232v-4.363c0-1.551.351-2.65,2.205-4.01a96.426,96.426,0,0,1,9.194-5.235c1.777-.955,3.791-2.037,6.164-3.325a33.6,33.6,0,0,0,10.4-8.96,56,56,0,0,0,8.269-15.66,118.4,118.4,0,0,0,5.464-23.8,251.76,251.76,0,0,0,1.966-33.242c0-18.594-2.418-34.536-7.187-47.382-3.782-10.189-9.042-18.454-15.631-24.566-11.117-10.311-22.234-10.917-22.345-10.922l-.944-.042-1.159-2.728.744-.744V93.592l-.746-.679V90.179l1.43-.067a1.339,1.339,0,0,0,1.236-.992V87.613l.227-.364c.31-.5.58-.9.818-1.258a5.981,5.981,0,0,0,1.094-2.169c.095-.406,1.169-4.94,2.655-11.215,3.883-16.389,11.11-46.894,11.644-49.263l.142-.629c.6-2.643.778-3.509.565-4.134-.364-1.069-.862-2.264-.867-2.276l-.116-.277v-2.3c0-.1,0-.189,0-.279a2.565,2.565,0,0,0,0-.324,2.681,2.681,0,0,0-.808-.722,26.684,26.684,0,0,0-4.26-2.161l-.944-.377V8.175A13.786,13.786,0,0,0,124.552,5.9a64.07,64.07,0,0,0-10.366-1.789C106.955,3.352,97.2,3,83.5,3s-23.454.352-30.684,1.109A64.081,64.081,0,0,0,42.45,5.9a13.81,13.81,0,0,0-5.015,2.278V9.861l-.939.378A26.69,26.69,0,0,0,32.271,12.4c-.724.522-.809.74-.809.743a2.38,2.38,0,0,0-.008.348c0,.078,0,.157,0,.239v2.32l-.111.272c0,.012-.5,1.226-.875,2.3-.211.6-.022,1.512.554,4.054l.158.7c.566,2.51,13.791,58.444,14.294,60.455a6.654,6.654,0,0,0,1.141,2.247c.227.343.483.733.776,1.2l.227.364v1.506a1.339,1.339,0,0,0,1.236.992l1.43.067v2.734l-.746.679v2.957l.744.744-1.159,2.728-.944.042a28.555,28.555,0,0,0-7.051,1.593,40.926,40.926,0,0,0-7.207,3.313,45.788,45.788,0,0,0-8.257,6.168c-6.552,6.131-11.779,14.4-15.536,24.581C5.4,148.559,3,164.444,3,182.958A252.039,252.039,0,0,0,4.963,216.2a118.464,118.464,0,0,0,5.461,23.807,56.059,56.059,0,0,0,8.269,15.67,33.706,33.706,0,0,0,10.406,8.98c2.483,1.351,4.567,2.473,6.406,3.463a93.008,93.008,0,0,1,8.993,5.134,4.347,4.347,0,0,1,2.163,3.973v4.367l-1.091.229c-.189.105-1.31.853-2.1,4.143-1.344,5.605-13.9,59.366-14.329,61.821a8.9,8.9,0,0,0,1.285,3.887A15.3,15.3,0,0,0,36.806,357.655Z" transform="translate(15.493 2.5)" fill="#fff"/></g></svg>