<svg xmlns="http://www.w3.org/2000/svg" width="250" height="67.437" viewBox="0 0 250 67.437"><g transform="translate(0 0)"><g transform="translate(0 -0.001)" style="mix-blend-mode:darken;isolation:isolate"><g transform="translate(0 0)"><path d="M27.095,17.484c0,5.2-5.565,6.2-12.278,6.2H0v-.726H.476a1.744,1.744,0,0,0,1.741-1.729V3.038A1.728,1.728,0,0,0,.476,1.325H0V.585H14.212c5.556,0,9.974,1.85,9.974,5.726,0,2.737-2.177,4.445-5.428,5.219v.029c4.765.233,8.337,1.6,8.337,5.925M6.558,2.516v8.337h7.979c2.873,0,5.815-1.144,5.815-4.177,0-3-2.942-4.16-5.815-4.16Zm16.156,14.6c0-2.81-2.52-4.1-6.671-4.1l-9.531,0v8.215H17.432c2.762,0,5.282-1.3,5.282-4.114" transform="translate(0 0.152)" fill="#040506"/><path d="M38.418.584v.753H37.356c-.981,0-1.336.96-.834,1.9l8.731,16.618L53.962,3.239c.508-.941.146-1.9-.8-1.9H52.086V.584h8.207v.753h-.622A2.944,2.944,0,0,0,57.313,2.77l-11,20.912h-3.7L31.6,2.77a2.889,2.889,0,0,0-2.337-1.433h-.614V.584Z" transform="translate(7.448 0.152)" fill="#040506"/><path d="M81.432,21.229a5.1,5.1,0,0,0,4.76-2.674l.689.346L84.44,23.684H63.065v-.726h.51a1.712,1.712,0,0,0,1.7-1.729V3.039a1.7,1.7,0,0,0-1.7-1.713h-.51V.583h8.574v.742h-.515a1.705,1.705,0,0,0-1.7,1.713V21.229Z" transform="translate(16.392 0.152)" fill="#040506"/><path d="M116.328,3.2l.993,4.715-.735.17c-2.245-3.545-5.552-6.462-11.487-6.462-6.47,0-11.73,4.649-11.73,10.409,0,5.723,5.26,10.392,11.73,10.392,4.649,0,7.606-1.364,9.4-4.241V15.07a1.7,1.7,0,0,0-1.7-1.688h-.7v-.761h9v.761h-.755a1.7,1.7,0,0,0-1.7,1.69v3.755c-2.689,3.433-6.7,5.75-13.543,5.75-9.1,0-16.492-5.521-16.492-12.284C88.607,5.487,96,0,105.1,0c5.229,0,8.268,1.222,11.228,3.2" transform="translate(23.031 0)" fill="#040506"/><path d="M129.731,17.44l-1.876,3.588c-.512.937-.136,1.905.824,1.905h1.052v.75h-8.215v-.75h.646a3.006,3.006,0,0,0,2.366-1.446l10.98-20.9h3.7l11.013,20.9a2.917,2.917,0,0,0,2.348,1.446h.627v.75h-9.777v-.75h1.05c.96,0,1.325-.968.824-1.905L143.44,17.44Zm6.864-13.015L131.03,15h11.111Z" transform="translate(31.585 0.152)" fill="#040506"/><path d="M177.609,16.287l2.96,4.689a4.281,4.281,0,0,0,3.147,1.957h1.008v.75h-4.844a6.3,6.3,0,0,1-4.643-2.873l-2.8-4.47a4.314,4.314,0,0,0-3.53-1.958h-6.172v6.846a1.7,1.7,0,0,0,1.708,1.73h.505v.724h-8.565v-.724h.508a1.734,1.734,0,0,0,1.707-1.73V3.037a1.719,1.719,0,0,0-1.707-1.713h-.508V.585h14.214c5.542,0,10.068,1.894,10.068,6.432,0,4.265-3.521,6.043-8.21,6.335v.019a6.454,6.454,0,0,1,5.158,2.917m-14.88-4.353h8.154a5.006,5.006,0,0,0,5.251-4.7,5.022,5.022,0,0,0-5.251-4.718h-8.154Z" transform="translate(40.646 0.152)" fill="#040506"/><path d="M198,21.229a1.7,1.7,0,0,0,1.7,1.729h.49v.726H191.64v-.726h.476a1.746,1.746,0,0,0,1.749-1.729V3.039a1.729,1.729,0,0,0-1.749-1.713h-.476V.583h8.549v.742h-.49A1.689,1.689,0,0,0,198,3.039Z" transform="translate(49.811 0.152)" fill="#040506"/></g></g></g><g transform="translate(0 0)"><path d="M57.178,57.082h1.674l7.456,16.725H63.871L61.654,68.88H54.559l-2.078,4.927H50.035Zm3.5,9.677-2.683-6.023L55.5,66.759Z" transform="translate(17.196 -6.559)" fill="#040506"/><path d="M67.587,57.162h2.381V71.627h7.487v2.165H67.587Z" transform="translate(20.276 -6.545)" fill="#040506"/><path d="M79.912,57.162h2.381V71.627h7.487v2.165H79.912Z" transform="translate(22.438 -6.545)" fill="#040506"/><path d="M92.238,57.162h9.428V59.28H94.619v5.072h6.809v2.132H94.619v5.165h7.272v2.12H92.238Z" transform="translate(24.601 -6.545)" fill="#040506"/><path d="M113.843,65.634h5.583v7.048a15.218,15.218,0,0,1-6.1,1.333,9.042,9.042,0,0,1-6.6-2.411,7.978,7.978,0,0,1-2.47-5.945,8.278,8.278,0,0,1,2.56-6.2,8.865,8.865,0,0,1,6.415-2.475,11.383,11.383,0,0,1,2.667.3,22.165,22.165,0,0,1,3.19,1.113v2.428a11.712,11.712,0,0,0-5.905-1.726,6.267,6.267,0,0,0-4.595,1.857,6.587,6.587,0,0,0,0,9.191,6.65,6.65,0,0,0,4.81,1.8,11.169,11.169,0,0,0,3.417-.656l.226-.073V67.754h-3.2Z" transform="translate(26.708 -6.577)" fill="#040506"/><path d="M122.338,73.792V57.162H126.5a6.016,6.016,0,0,1,4,1.249,4.2,4.2,0,0,1,1.482,3.381,4.155,4.155,0,0,1-2.809,4.1,7.4,7.4,0,0,1,1.56,1.429,28.831,28.831,0,0,1,2.143,3.154q.869,1.419,1.393,2.132l.88,1.19h-2.833L131.6,72.7c-.024-.039-.072-.107-.142-.2l-.464-.656-.737-1.215-.8-1.3a12.952,12.952,0,0,0-1.352-1.63A5.172,5.172,0,0,0,127,66.822a3.775,3.775,0,0,0-1.663-.267h-.619v7.237Zm3.095-14.607h-.715v5.252h.905a6.72,6.72,0,0,0,2.481-.31,2.328,2.328,0,0,0,1.048-.934,2.709,2.709,0,0,0,.375-1.422,2.553,2.553,0,0,0-.417-1.423,2.225,2.225,0,0,0-1.172-.9,8.431,8.431,0,0,0-2.506-.263" transform="translate(29.879 -6.545)" fill="#040506"/><path d="M142.545,57.082h1.674l7.457,16.725h-2.437l-2.217-4.927h-7.095l-2.078,4.927H135.4Zm3.5,9.677-2.683-6.023-2.488,6.023Z" transform="translate(32.173 -6.559)" fill="#040506"/></g></svg>