<svg xmlns="http://www.w3.org/2000/svg" width="3880" height="1046.619" viewBox="0 0 3880 1046.619"><g transform="translate(0 0)"><g transform="translate(0 0)" style="isolation:isolate"><g transform="translate(0 0)"><path d="M420.508,262.863c0,80.738-86.37,96.206-190.554,96.206H0V347.805H7.391a27.065,27.065,0,0,0,27.024-26.828V38.657c0-14.9-12.319-26.593-27.024-26.593H0V.585H220.569C306.8.585,375.358,29.29,375.358,89.458c0,42.471-33.789,68.986-84.239,80.993v.45c73.953,3.617,129.389,24.794,129.389,91.962m-318.73-232.3V159.95H225.614c44.583,0,90.242-17.755,90.242-64.821,0-46.578-45.659-64.567-90.242-64.567ZM352.519,257.133c0-43.605-39.108-63.609-103.538-63.609l-147.926-.039V320.977H270.549c42.862,0,81.97-20.18,81.97-63.844" transform="translate(0 10.854)" fill="#fff"/><path d="M180.2.584V12.277H163.713c-15.233,0-20.727,14.9-12.945,29.507L286.278,299.7,421.435,41.784c7.88-14.607,2.268-29.507-12.456-29.507h-16.66V.584H519.694V12.277h-9.66c-14.959,0-30.817,11.224-36.585,22.233L302.762,359.067h-57.45L74.449,34.51C69.092,23.462,52.862,12.277,38.177,12.277H28.654V.584Z" transform="translate(531.646 10.836)" fill="#fff"/><path d="M348.123,321.014c33.965,0,60.129-15.311,73.875-41.494l10.7,5.377-37.9,74.207H63.065V347.842h7.919a26.569,26.569,0,0,0,26.456-26.828V38.694A26.32,26.32,0,0,0,70.984,12.1H63.065V.583H196.13V12.1h-8a26.467,26.467,0,0,0-26.456,26.593v282.32Z" transform="translate(1170.107 10.817)" fill="#fff"/><path d="M518.834,49.726,534.243,122.9l-11.4,2.64C488,70.512,436.668,25.244,344.569,25.244c-100.41,0-182.048,72.154-182.048,161.555,0,88.814,81.638,161.281,182.048,161.281,72.154,0,118.048-21.177,145.912-65.819V233.885a26.367,26.367,0,0,0-26.437-26.2l-10.872-.02V195.853H592.885v11.811H581.172a26.33,26.33,0,0,0-26.418,26.222v58.271C513.026,345.441,450.747,381.4,344.569,381.4c-141.3,0-255.962-85.686-255.962-190.651C88.607,85.158,203.272,0,344.569,0c81.149,0,128.313,18.967,174.265,49.726" transform="translate(1644.013)" fill="#fff"/><path d="M249.008,262.178l-29.116,55.69c-7.939,14.548-2.112,29.566,12.788,29.566h16.328v11.635H121.516V347.434h10.031c14.724,0,30.7-11.341,36.722-22.448L338.682.585h57.371l170.921,324.4c5.671,11.107,21.49,22.448,36.449,22.448h9.738v11.635H461.423V347.434h16.288c14.9,0,20.571-15.017,12.788-29.566l-28.725-55.69ZM355.538,60.186l-86.37,164.058H441.615Z" transform="translate(2254.606 10.854)" fill="#fff"/><path d="M485.882,244.286l45.932,72.78c10.364,16.484,31.99,30.367,48.846,30.367H596.3v11.635H521.118c-24.442,0-56.863-20.1-72.057-44.583l-43.528-69.378c-10.207-16.914-32.342-30.387-54.79-30.387H254.949V320.977c0,14.822,11.459,26.848,26.515,26.848h7.841v11.244H156.378V347.825h7.88c14.274,0,26.5-12.026,26.5-26.848V38.637a26.676,26.676,0,0,0-26.5-26.593h-7.88V.585H376.986c86.018,0,156.256,29.39,156.256,99.823,0,66.19-54.653,93.781-127.414,98.317v.293c33.2.528,64.45,20.473,80.055,45.267M254.949,176.727H381.5c44.974,0,81.5-32.792,81.5-72.936,0-40.125-36.527-73.23-81.5-73.23H254.949Z" transform="translate(2901.435 10.854)" fill="#fff"/><path d="M290.27,321.014a26.453,26.453,0,0,0,26.437,26.828h7.607v11.263H191.64V347.842h7.391a27.09,27.09,0,0,0,27.141-26.828V38.694c0-14.9-12.319-26.593-27.141-26.593H191.64V.583H324.314V12.1h-7.607A26.206,26.206,0,0,0,290.27,38.694Z" transform="translate(3555.686 10.817)" fill="#fff"/></g></g></g><g transform="translate(1043.43 782.23)"><path d="M160.894,57.082h25.977L302.583,316.655H264.767l-34.405-76.472H120.25L88,316.655H50.035Zm54.289,150.191L173.536,113.8l-38.619,93.475Z" transform="translate(-50.035 -55.202)" fill="#fff"/><path d="M67.587,57.162h36.959V281.655h116.2v33.6H67.587Z" transform="translate(252.614 -53.818)" fill="#fff"/><path d="M79.912,57.162h36.959V281.655h116.2v33.6H79.912Z" transform="translate(465.132 -53.818)" fill="#fff"/><path d="M92.238,57.162H238.56V90.035H129.2v78.716H234.875v33.092H129.2V282H242.063v32.909H92.238Z" transform="translate(677.664 -53.818)" fill="#fff"/><path d="M252.991,191.3h86.651V300.681q-47.667,20.687-94.605,20.687-64.113,0-102.449-37.416t-38.327-92.27q0-57.847,39.732-96.284,39.7-38.364,99.567-38.419a176.67,176.67,0,0,1,41.392,4.707q19.564,4.761,49.509,17.276V116.65q-46.189-26.762-91.649-26.78-42.3,0-71.31,28.823-29.005,28.842-28.987,70.781,0,43.974,28.987,71.857,29.005,27.911,74.648,27.911,22.164,0,53.031-10.179l3.5-1.131V224.208H252.991Z" transform="translate(884.933 -56.979)" fill="#fff"/><path d="M122.338,315.257V57.162h64.669q39.157,0,62.152,19.392,23.014,19.428,23,52.466,0,22.548-11.256,39-11.273,16.473-32.344,24.554a114.778,114.778,0,0,1,24.208,22.183Q264.592,228.8,286.027,263.7c8.993,14.685,16.181,25.685,21.618,33.092l13.663,18.462H277.344l-11.256-16.984c-.365-.6-1.113-1.66-2.207-3.138l-7.206-10.179-11.438-18.863-12.368-20.158a201.03,201.03,0,0,0-20.979-25.3q-9.495-9.386-17.185-13.554c-5.126-2.736-13.718-4.141-25.813-4.141h-9.614V315.257Zm48.032-226.7H159.279v81.508h14.047q28.075,0,38.51-4.816a36.125,36.125,0,0,0,16.273-14.5,42.046,42.046,0,0,0,5.819-22.073,39.622,39.622,0,0,0-6.476-22.092,34.536,34.536,0,0,0-18.188-13.937c-7.844-2.718-20.778-4.086-38.893-4.086" transform="translate(1196.644 -53.824)" fill="#fff"/><path d="M246.244,57.082h25.977l115.73,259.573H350.134l-34.4-76.472H205.618l-32.252,76.472H135.4Zm54.307,150.191L258.9,113.8l-38.619,93.475Z" transform="translate(1421.948 -55.202)" fill="#fff"/></g></svg>