<svg xmlns="http://www.w3.org/2000/svg" xmlns:xlink="http://www.w3.org/1999/xlink" width="20" height="18.664" viewBox="0 0 20 18.664"><defs><clipPath id="a"><rect width="20" height="18.664" fill="none"/></clipPath></defs><g transform="translate(0 0.001)"><g transform="translate(0 -0.001)" clip-path="url(#a)"><path d="M27.276,11.062c-.052.366-.09.734-.156,1.1a9.1,9.1,0,0,1-2.573,4.891.663.663,0,1,1-.952-.923A8.21,8.21,0,0,0,25.26,13.7a7.971,7.971,0,0,0-.2-6.858A8.483,8.483,0,0,0,23.679,4.91a1.066,1.066,0,0,1-.262-.462.615.615,0,0,1,.341-.681.63.63,0,0,1,.785.137,15.879,15.879,0,0,1,1.194,1.463,8.826,8.826,0,0,1,1.5,4.372,1.158,1.158,0,0,0,.033.151Z" transform="translate(-7.276 -1.146)"/><path d="M12,9.341v8.494a1.328,1.328,0,0,1-.03.348.634.634,0,0,1-.952.38c-.353-.229-.675-.508-1-.772l-5.445-4.35a.554.554,0,0,0-.314-.11c-.937-.008-1.875,0-2.812-.006A1.341,1.341,0,0,1,0,11.886q0-1.23,0-2.46V6.712a1.318,1.318,0,0,1,1.036-1.34,1.96,1.96,0,0,1,.445-.037c.918,0,1.836,0,2.753-.007A.606.606,0,0,0,4.583,5.2Q7.691,2.73,10.789.243A.753.753,0,0,1,11.5.025a.653.653,0,0,1,.493.607V9.341M10.653,16.6V2.073c-.05.035-.081.055-.11.079Q7.989,4.194,5.44,6.241a.353.353,0,0,0-.1.249c-.006,1.894,0,3.789-.007,5.683a.319.319,0,0,0,.134.279q2.024,1.61,4.042,3.229l1.145.914M3.986,6.678H1.347v5.306H3.986Z" transform="translate(0 0.001)"/><path d="M23.757,11.491a6.474,6.474,0,0,1-1.93,4.521.66.66,0,0,1-.945.037.652.652,0,0,1-.021-.944,6.156,6.156,0,0,0,1.1-1.6,5.353,5.353,0,0,0-.89-5.722c-.084-.09-.169-.181-.247-.277A.661.661,0,0,1,20.89,6.6a.643.643,0,0,1,.915.025,9.1,9.1,0,0,1,.842,1.022,6.657,6.657,0,0,1,1.11,3.847" transform="translate(-6.428 -1.995)"/></g></g></svg>